<?xml version="1.0" encoding="utf-8"?>
<!-- Generator: Adobe Illustrator 19.0.0, SVG Export Plug-In . SVG Version: 6.00 Build 0)  -->
<svg version="1.1" xmlns="http://www.w3.org/2000/svg" xmlns:xlink="http://www.w3.org/1999/xlink" x="0px" y="0px"
	 viewBox="0 0 1024 1024" style="enable-background:new 0 0 1024 1024;" xml:space="preserve">
	<g>
		<path id="XMLID_66_" d="M1016.7,246.6c-24.2,24.4-48.4,48.7-72.7,73.1c-238.6-240-625.5-240-864.1,0
						C55.7,295.4,31.5,271,7.3,246.6C286-33.8,738-33.8,1016.7,246.6z"/>
		<path id="XMLID_62_" d="M666.4,680.8l219.9,127.6l48-83.6L607.9,535.1l58.2-33.6l0.2,0.1l219.9,127.8l48-83.5L607.9,356.3
						l72.8-42.2l-48-83.5L512,300.7l-120.7-70.1l-48,83.5l72.8,42.2L89.8,545.9l48,83.5l219.9-127.8l58.4,33.9L89.8,725.1l48,83.5
						l219.9-127.8l58.4,33.9L89.8,904.2l48,83.5l374.1-217.4l0.1,0.1l374.2,217.3l48-83.6L607.9,714.3l58.3-33.6L666.4,680.8z
						M512,412l58.2,33.8l-58,33.8l-0.2-0.1l-58.4-33.7L512,412z M512.2,658.9l-0.2-0.1l-58.5-33.8l0.1-0.1l58.2-33.8l0.2,0.1
						l58.4,33.9L512.2,658.9z"/>
	</g>
</svg>
